<svg xmlns="http://www.w3.org/2000/svg" xml:space="preserve" width="338.066" height="218.598" style="shape-rendering:geometricPrecision;text-rendering:geometricPrecision;image-rendering:optimizeQuality;fill-rule:evenodd;clip-rule:evenodd" viewBox="0 0 8271 5348"><defs><style>.fil0{fill:var(--color-light-base)}</style></defs><g id="Warstwa_x0020_1"><g id="_2419460366432"><path class="fil0" d="M3247 5124c-7-49 44-101 62-146 20-51 42-116 54-166 30-124 27-325 41-359l9-15c12-19 206-14 232-9 71 110 3 385-17 514-7 49-2 88-27 124-14 21-51 57-81 65-53 14-230 13-273-8zm1780-1071c-12 62-15 66-43 110-100 158-71 473-186 573-29 25-59 36-90 59-26 20-67 41-100 56-49 24-74 50-193 105-98 46-365 100-483 127-37 8-91 15-134 5-107-26-41-133-20-206 84-287 34-223 15-375-9-67 1-74 53-96 41-16 22-13 45-34 44-40 18 29 211-172 116-122 147-200 388-214 121-6 317 2 455 0 65-1 95-9 82 62zm-2377 421c133 0 243 2 376-8 61-4 153-18 205-7 57 109-38 559-142 620-30 18-235 12-282 11-121-3-303-19-398-76-152-91-226-101-323-310-57-124-77-107-77-283 1-90-1-112 26-186 27-69 115-212 184-237 118-42 55 54 33 88-68 108-31 251 51 306 42 29 97 47 151 61 87 23 104 21 196 21zm3116-142c-39 0-63-4-76-32-47-75 149-81 110-202-59-27-59-3-115 29-36 21-73 47-95 79-102 149 64 326 344 289 48-6 98-16 145-28 137-36 224-108 322-203 155-149 126-502 155-549 18-28 74-58 97-75 34-26 67-47 115-65 222-89 209 313 199 470-9 138-78 275-148 379-32 48-116 151-165 188-31 23-73 41-102 70-58 58-130 99-219 133-271 102-736 168-1022 77-45-14-83-36-119-54-140-68-168-175-140-342 26-148 80-397 198-482 47-34 82-18 148-23 140-12 316-25 449-61 33-9 263-63 275-61 27 55 10 128-18 169-99 148-208 129-222 203-15 81 29 90-116 91zm318-94c-2-40 21-35 76-122 72-115 62-90 86-227 7-41 4-49 37-63 32-13 129-76 153-20 39 92-32 196-54 244-16 35-16 43-40 70-42 50-187 171-258 118zM2411 3032c6 48 9 196 114 120 102-74 91-82 196-82 58-1 117-3 141 43-6 82-170 96-118 228 105 41 99-86 213-140 47-22 92 21 113 48 34 42 37 75 41 146 5 68 7 104-33 145-122 126-235 12-395-52-44-17-86-29-132-48-101-41-266-150-345-211-27-20-67-67-80-101-83-212 26-148 133-131 53 8 110 20 152 35zm2262 761c-4-60 54-74 91-108 36-33 162-176 182-225 58-143 42-432-24-544-64-108-188-118-303-90-97 23-239 61-292 116-37 38-58 55-93 111-66 104-16 127-68 141-79 21-312 13-234-147 89-185 295-288 497-324 118-22 229-58 351-61 116-3 266 15 358 55 127 55 140 100 206 208 55 91 71 227 48 347-15 77-31 95-48 156-24 87-89 197-154 260-20 19-92 82-118 93-37 15-342 20-399 12zM7207 856c19 10 26 29 32 55 6 25 11 47 16 71 28 127 64 360 50 482-8 75-19 84-55 126-27 31-42 70-74 106-168 186-120 211-346 367-115 80-29 64-270 176-66 30-124 64-199 73-55 7-99 16-140 42-89 58-89 204 138 123 51-18 194-96 242-126 30-19 46-31 80-45 41-18 132-69 158-93l424-445c25-35 27-48 79-50 43 58 44 163 26 250-30 153-164 226-283 310s-220 172-350 246c-66 38-237 116-311 135-40 10-74 22-114 34-88 29-175 10-215 84 1 77 73 89 149 84 94-6 119-14 195-45 212-89 294-103 474-247l321-281c150-144 130 209-56 350-73 55-155 114-241 158-65 34-146 110-260 147-39 13-62 18-98 35-34 16-68 16-109 33-117 46-353 59-344 198 32 67 239 34 301 16 216-63 373-192 550-310 20-14 39-19 60-34 30-21 56-57 75-67 37-20 17-7 30-4 1 0 4 2 6 2 36 11-32 92-43 114-38 73-83 145-141 202-38 37-63 48-102 79-136 106-358 271-521 348-126 60-258 100-402 121-90 13-577 88-631 68 0-60 123-152 169-318 79-289 52-552-149-775-71-79-227-153-337-164-280-29-578 37-822 156-150 74-313 226-360 391-90 314 418 379 498 256 25-39 9-67 14-113 7-70 85-86 138-111 56-26 113-53 188-60 101-9 142-7 166 81 73 272-93 531-343 624-174 65-211 84-427 60-230-25-448-44-675-77-38-5-72-9-111-13-22-2-30-3-52-11-74-24-22-79-7-143 9-38 22-108 24-148 2-80-51-194-88-248-14-22-66-64-84-80-27-24-68-44-103-70-123-93-407-107-563-118-54-3-91-17-141-23-187-21-111-82-43-146l88-84c30-24 70-46 87-86 13-30 7-111-6-147-20-59-28-71-9-142 11-42 27-92 52-119 77-84 203-132 299-203 36-27 58-61 89-84 33-25 74-45 69-100-10-104-133-100-88-223 31-84 66-158 112-233 39-64 89-139 139-198 44-51 126-121 178-166 170-147 466-249 675-334 105-43 288-86 400-117 76-22 197-49 277-61 99-15 212-8 319-17 220-19 440 13 659 9 86-2 392 54 468 118 22 19 15 21 47 40 58 35 96 130 126 210 66 179-13 390-95 539-23 43-46 67-69 104-23 38-41 73-70 101-22 22-64 51-68 95-5 51 40 72 91 75 90 4 248 11 317-25 105-57 208-318 241-432 87-300-48-570 60-607 147-50 129 60 125 181-5 159-39 432-106 567-13 26-12 34-23 63l-83 176c-28 56-110 142-172 163-25 9-35 16-55 24-54 19-166 8-183 75-14 53 33 77 83 78 69 1 82-27 127-47 52-22 175-98 210-136 151-166 100-127 199-309 61-111 83-279 105-403 43-238-68-553 200-426 102 48 71 134 58 245-15 136-56 290-86 423-31 139-210 452-306 539-68 60-204 200-276 233-79 35-220 48-236 101-16 50 25 94 63 104 59 16 187-68 234-97 80-50 347-329 425-421l71-101c46-69 73-154 108-237 33-80 48-177 69-267 13-56 21-81 27-143 5-45 7-112 41-136zM3457 3968c-89 83-483 116-633 98-47-6-297-63-306-62-68 12-71 126 114 184 191 61 465 31 672 0 173-25 154-1 294-166 20-23 21-24 57-38 68-25 92-17 170-15 90 2 308-12 199 127-48 63-149 120-228 147-100 33-418-16-692 37-153 29-541 70-682 17-42-16-83-46-92-89-17-87 29-82 59-127 46-70 2-86 61-126 36-26 85-55 60-113-45-102-402-94-557 62-137 138-182 307-182 564 0 121 13 218 61 310l114 167c125 152 323 267 525 314 218 51 437 50 662 80 108 15 621 11 726-7 203-36 437-50 617-127 138-59 282-154 407-243 62-44 58-81 148 30 47 58 128 102 198 131 40 16 70 38 113 51 160 51 434 17 605-8 184-27 354-90 507-152 74-30 149-72 215-113 205-129 358-308 425-569 37-148 74-453 41-606-26-118-43-146-90-239-62-121 20-137 71-206 95-126 202-249 259-408 122-344 66-201 131-526 59-293 53-919-29-1210-52-183-83-350-150-515-35-85-78-141-146-184-97-63-128-65-264-65-130 0-175 1-291 38-249 81-222 197-174 436 17 86 11 217-5 300-23 120-78 251-169 325-27 23-60 62-119 51-40-117 139-187 178-517 21-180-52-460-133-578-43-63-135-118-204-148-63-27-206-67-277-83-41-10-123-13-168-15-53-3-100-15-156-18-769-41-1131-19-1836 291-94 41-159 80-231 130-75 52-143 91-213 147-84 66-111 83-195 165l-127 132c-16 22-24 38-36 57-65 99-214 418-111 532 133 150-61 138-123 158-182 61-291 221-307 405-20 239 31 229-56 289l-134 133c-11 15-21 43-31 63-81 158-66 487 1 604l167 194c45 42 303 171 348 184 59 15 86 29 135 45 92 29 160 66 271 89l430 111c69 21 106-1 106 75zM1412 3544c-28-44-69-52-130-37-49 13-98 31-149 46-119 35-171 52-270 121-86 61-243 274-294 380-5 11-9 22-15 32l-29 32c-27-64-19-94-19-175 0-97 2-96 45-157 18-25 13-38 33-62 30-36 68-71 93-111 55-89 171-183 259-241 50-33 79-46 156-50 48-3 116-19 173-27 182-24 176-150 15-135-100 10-251 22-335 64-39 20-76 54-117 79-53 32-77 53-112 92-40 45-140 211-201 185-14-24-16-147-3-178 17-42 70-79 95-109 61-73 156-108 217-190 54-71 165-118 241-158 62-33 66-39 147-57 58-12 131-11 194-12 70 0 91-58 54-106-28-36-123-24-180-23-113 3-241 27-320 86-45 33-61 59-105 89-81 55-160 113-229 179-30 28-61 82-117 78-15-44 9-141 14-191 14-140 37-188 160-260 42-25 79-68 122-98 28-20 151-154 257-174l357-74c56-11 144 17 180-30 48-62-21-101-83-102-82-1-318 24-392 43-103 26-217 73-293 136-53 43-136 92-177 145-22 29-22 44-72 39 2-77 31-140 48-214 36-160 79-131 188-202 31-20 32-35 73-60 111-70 230-124 353-172 244-93 245-38 441-83 61-14 151-54 159-108-24-41-63-52-129-44-275 34-182 21-459 84-105 24-297 93-368 171-24 27-78 65-119 67 12-89 30-166 67-244 39-81 106-97 174-139 35-22 38-15 77-25 33-8 15-7 40-16 19-7 27-6 44-10 61-16 71-42 149-54 59-8 116-35 172-41 35-4 381-30 381-30 16-10 8 1 21-22 15-26 11-70-12-86-67-43-372-14-440 3-45 11-90 27-130 35-49 11-89 14-136 27-135 36-197 109-231 65-27-34 15-113 33-145 40-68 156-153 228-179 37-13 117-40 149-55 152-71 371-58 544-59 34 0 64-1 86-15 19-12 40-26 53-46-6-46-51-77-107-77-120 0-271-8-385-1-42 3-118 56-152 18-65-68 225-124 262-128 71-8 310-32 353-63 55-40 50-93-8-119-100-46-238 20-340 54-147 48-319 81-422 203-76 90-221 194-272 253-16 20-27 35-46 56l-91 120c-75 133-76 135-133 290-19 51-34 101-51 153-34 105-78 196-109 306-16 56-39 89-54 158-25 114-69 213-91 323-37 187-57 382-54 575 1 108-11 265-9 415 3 176 18 421 46 584 33 192 113 281 235 391 20 19 40 21 48 54 34 125-145 21-181-7l-113-99c-89-86-99-137-129-285-24-123-51-243-51-372 1-418-7-787 57-1197 20-129 47-225 75-346 28-122 51-217 87-329 17-54 27-114 43-168 22-76 59-162 71-244 18-119 106-262 161-362 26-46 61-80 95-116l109-95c24-17 40-18 62-39 56-53 117-94 180-142l134-77c87-42 200-97 304-111 65-9 113-32 173-40 63-9 125-11 190-20 61-8 138 4 201-2 69-6 105-58 58-113-42-49-295-39-379-39-186 1-352 45-516 113-53 22-104 35-153 59-95 45-167 114-254 160-76 40-164 136-224 200-117 124-175 219-242 384-97 240-78 237-146 479-32 113-60 217-94 330l-77 338c-24 127-38 237-54 369-38 292-68 894-21 1194 22 143 43 208 89 331 17 46 40 101 65 139 18 28 72 102 91 120 179 167 328 240 589 245 147 3 422 30 536-77 27-26 76-97 19-130-33-20-143 2-187 7-67 7-318 20-334-64-18-89 80-233 145-272 40-24 96-44 145-67 25-12 273-72 202-184-53-83-416 71-492 192-16 27-25 42-46 63-42 41-53 96-83 129-77 84-187-132-145-217 23-46 47-98 74-136 57-84 105-177 180-242 90-78 143-122 260-156 97-27 283-29 280-141z"/><path class="fil0" d="M4665 1618c-38 275-59 362-359 426-135 29-254 59-398 71-138 11-474 14-590-30-52-20-173-75-202-110-37-44-39-222 23-244 107-38 687 47 808-53 20-16 27-18 46-33 37-26 123-124 151-162 115-151-51-314 174-299 32 2 40 11 65 15 49 8 93-6 178 58 93 71 115 275 104 361zm-575-298c-13 47-45 77-64 107-39 61-87 19-47-39 27-39 34-75 58-114 35-62 73-21 53 46zm-147-35c-29 60-67 108-131 131-72 26-135 49-215 58-40 4-253 36-287 52-27 13-22 19-35 35-40 48-75-3-48-47l155-111c68-38 115-56 188-87 71-29 132-44 212-63 51-12 213-77 161 32zm-361 998h8c228 1 468 10 693-43 118-28 179-59 255-120 33-27 75-60 97-91 26-37 43-86 82-108 53 3 52 43 149 39 186-7 300-12 449-113 57-39 147-125 175-199 66-173 102-482 72-670-23-148-15-185-95-289-192-247-361-237-640-237-47 0-200-15-225 10-53 54 57 100 106 109 135 24 232-21 440 36 111 31 212 112 263 216 101 205-7 591-87 791-53 133-150 141-301 178-45 11-171 23-213 6-62-25-31-98-26-188 7-148-24-467-164-545-50-28-106-51-173-59-308-39-884 107-1134 288-41 30-91 75-129 106-84 65-150 188-179 299-17 64-25 152-17 221 17 138 36 197 206 274 132 60 218 89 388 89zM3577 5c-118 26-159 39-192 156-12 44 20 89 51 107 61 36 78 13 139 3 136-23 22 16 125-46 31-19 77-40 75-94-3-95-96-148-198-126zM2778 162c-46 21-59 23-92 67-106 145-39 222 160 205 126-10 190-182 51-252-12-6-43-16-58-21-36-13-29-13-61 1zM2682 2281c64 0 113-29 110-99-3-54-64-100-124-91-125 21-171 191 14 190z"/></g><path d="m7973 567-66-113c-3 0-7 1-14 1h-86v112h-73V185h159c50 0 88 11 115 34s41 55 41 97c0 30-7 56-20 77s-32 37-56 47l84 127h-84zm-166-177h86c28 0 49-6 64-18 14-12 22-30 22-53 0-24-8-41-22-53-15-12-36-17-64-17h-86v141z" style="fill:var(--color-light-base);fill-rule:nonzero"/><path d="M7895 0c208 0 376 168 376 376 0 207-168 376-376 376-207 0-376-169-376-376 0-208 169-376 376-376zm0 70c169 0 306 137 306 306s-137 306-306 306-306-137-306-306 137-306 306-306z" style="fill:var(--color-light-base)"/></g></svg>